<svg width="16" height="17" viewBox="0 0 16 17" fill="none" xmlns="http://www.w3.org/2000/svg">
<path d="M14.8147 14.6201V11.7553C14.8147 11.706 14.8147 11.6566 14.7653 11.6072C14.7159 11.5578 14.7159 11.5578 14.6666 11.5578C13.9751 11.5084 13.333 11.4096 12.7403 11.2614C12.0982 11.1132 11.4561 10.8663 10.8634 10.6193C10.814 10.6193 10.814 10.6193 10.7646 10.6193C10.7152 10.6193 10.7152 10.6193 10.6658 10.6687L10.0731 11.2614C9.82612 11.5084 9.52977 11.6072 9.23341 11.6566C8.93706 11.706 8.59131 11.6072 8.34435 11.459C7.60347 10.9651 6.91198 10.4218 6.31927 9.77966C5.67717 9.13756 5.13386 8.44607 4.63994 7.75458C4.44237 7.50762 4.39298 7.16187 4.44237 6.86552C4.49176 6.56916 4.59055 6.27281 4.83751 6.02585L5.43021 5.43314C5.47961 5.38375 5.47961 5.38375 5.47961 5.33436C5.47961 5.28497 5.47961 5.28497 5.47961 5.23557C5.18325 4.64287 4.98568 4.00077 4.83751 3.35867C4.59055 2.71657 4.44237 2.02508 4.44237 1.38298C4.44237 1.33359 4.44237 1.2842 4.39298 1.2842C4.34358 1.23481 4.29419 1.23481 4.2448 1.23481H1.38005C1.33066 1.23481 1.33066 1.23481 1.33066 1.23481L1.28127 1.2842L1.23188 1.33359V1.38298C1.42944 4.98861 2.9606 8.2485 5.38082 10.6687C7.80104 13.0889 11.0609 14.6201 14.6666 14.8177C14.7159 14.8177 14.7159 14.8177 14.7159 14.8177C14.7159 14.8177 14.7653 14.8177 14.7653 14.7683L14.8147 14.7189C14.8147 14.6695 14.8147 14.6695 14.8147 14.6201ZM16.0001 11.8047V14.6695C16.0001 14.8671 15.9508 15.0646 15.9014 15.2128C15.852 15.361 15.7038 15.5585 15.5556 15.6573C15.4074 15.8055 15.2593 15.9043 15.0617 15.9537C14.8641 16.0031 14.7159 16.0525 14.5184 16.0525C10.6164 15.8549 7.06016 14.1756 4.44237 11.5578C1.87397 8.93999 0.194639 5.38375 -0.00292969 1.48177C-0.00292969 1.2842 -0.00292969 1.08663 0.0958547 0.938452C0.145247 0.790275 0.244031 0.592707 0.392208 0.44453C0.490992 0.296353 0.688561 0.197569 0.836738 0.0987844C1.03431 0.0493922 1.18248 0 1.38005 0H4.2448C4.59055 0 4.93629 0.148177 5.18325 0.395138C5.43021 0.642099 5.57839 0.938452 5.62778 1.33359C5.67717 1.8769 5.77596 2.46961 5.92414 3.01292C6.07231 3.60563 6.26988 4.14895 6.51684 4.64287C6.61563 4.88983 6.66502 5.18618 6.61563 5.43314C6.56623 5.6801 6.46745 5.97646 6.22049 6.17403L5.62778 6.76673C5.57839 6.81612 5.57839 6.81612 5.57839 6.86552C5.57839 6.91491 5.57839 6.9643 5.62778 6.9643C6.07231 7.6064 6.56623 8.2485 7.15894 8.79181C7.70225 9.33513 8.34435 9.87844 8.98645 10.323C9.03584 10.3724 9.08524 10.3724 9.08524 10.3724C9.13463 10.3724 9.18402 10.3724 9.18402 10.323L9.77673 9.73027C9.9743 9.5327 10.2213 9.38452 10.5176 9.33513C10.7646 9.28574 11.0609 9.33513 11.3079 9.43391C11.8512 9.68087 12.3945 9.87844 12.9378 10.0266C13.4811 10.1748 14.0738 10.2736 14.6666 10.323C15.0123 10.3724 15.358 10.5205 15.605 10.7675C15.9014 11.0639 16.0001 11.4096 16.0001 11.8047Z" fill="#9B63F8"/>
</svg>
